<svg width="141.732" height="141.732" xmlns="http://www.w3.org/2000/svg">

 <g>
  <title>background</title>
  <rect fill="none" id="canvas_background" height="402" width="582" y="-1" x="-1"/>
 </g>
 <g>
  <title>Layer 1</title>
  <path fill="#00bf00" id="svg_1" d="m86.260002,108.111c0,2.985001 2.419998,5.404999 5.402,5.404999c2.985001,0 5.405998,-2.419998 5.405998,-5.404999c0,-2.983002 -2.420998,-5.403999 -5.405998,-5.403999c-2.982002,-0.001999 -5.402,2.418999 -5.402,5.403999m-64.866003,0.037003c0,3.005997 2.437,5.440994 5.439001,5.440994s5.443001,-2.437996 5.443001,-5.440994s-2.438002,-5.441002 -5.443001,-5.441002s-5.439001,2.435997 -5.439001,5.441002m118.919996,-105.445003c0,-1.493 -1.209991,-2.703 -2.701996,-2.703l-16.217003,0c-1.084999,0 -2.019997,0.642 -2.446999,1.562l-0.009995,-0.004l-11.956001,25.637999l-106.982002,0l0,0.229l22.58,48.424l61.657,0l10.004997,21.454002l-75.550997,0c-1.493,0 -2.703,1.210999 -2.703,2.701996c0,1.493004 1.21,2.703003 2.703,2.703003l79.796999,0l0,-0.001999c0.383003,0 0.772003,-0.079002 1.142998,-0.250999c1.354004,-0.633003 1.938004,-2.238998 1.310005,-3.594002c-0.011002,-0.022003 -0.024002,-0.045998 -0.037003,-0.067001l-10.699997,-22.945999l0.061996,0l8.111,-17.401001c0.131004,-0.163998 0.248001,-0.343998 0.340004,-0.542999c0.096001,-0.195999 0.155998,-0.399998 0.197998,-0.605l24.194,-51.888l14.504997,0c1.490005,-0.005 2.699997,-1.215 2.699997,-2.708"/>
 </g>
</svg>